# xmcd
#
# Track frame offsets:
#	150
#	6344
#	23662
#	41062
#	61207
#	80723
#	98907
#	118611
#	134785
#	153100
#	170081
#	191194
#	208334
#	225640
#	242043
#	253993
#	266084
#	280888
#	299054
#	315243
#	333825
#
# Disc length: 4698 seconds
#
# Revision: 1
# Processed by: cddbd v1.5.2PL0 Copyright (c) Steve Scherf et al.
# Submitted via: audiograbber 1.83.01
#
DISCID=41125815
DTITLE=snoop dogg - ego trippin'
DYEAR=1900
DGENRE=Hiphop
TTITLE0=a word witchya!(intro)
TTITLE1=press play
TTITLE2=sd is out
TTITLE3=gangsta like me
TTITLE4=neva have to worry
TTITLE5=sexual eruption
TTITLE6=life of da party
TTITLE7=waste of time
TTITLE8=cool
TTITLE9=sets up
TTITLE10=deez hollywood nights
TTITLE11=whateva u do
TTITLE12=staxxx in my jeans
TTITLE13=been around the world
TTITLE14=let it out
TTITLE15=my medicine
TTITLE16=ridin' in my chevy
TTITLE17=those gurlz
TTITLE18=one chance (make it good)
TTITLE19=why did you leave me
TTITLE20=can't say goodbye
EXTD=
EXTT0=
EXTT1=
EXTT2=
EXTT3=
EXTT4=
EXTT5=
EXTT6=
EXTT7=
EXTT8=
EXTT9=
EXTT10=
EXTT11=
EXTT12=
EXTT13=
EXTT14=
EXTT15=
EXTT16=
EXTT17=
EXTT18=
EXTT19=
EXTT20=
PLAYORDER=
